<svg width="31" height="31" viewBox="0 0 31 31" fill="none" xmlns="http://www.w3.org/2000/svg">
<path d="M15.2534 30.7423C23.6776 30.7423 30.5068 23.9181 30.5068 15.5001C30.5068 7.082 23.6776 0.257812 15.2534 0.257812C6.82917 0.257812 0 7.082 0 15.5001C0 23.9181 6.82917 30.7423 15.2534 30.7423Z" fill="#11385B"/>
<path d="M6 11.9172C6 10.4444 7.24167 9.25049 8.77333 9.25049H23.2267C24.7583 9.25049 26 10.4444 26 11.9172V19.9172C26 21.3899 24.7583 22.5838 23.2267 22.5838H8.77333C7.24167 22.5838 6 21.3899 6 19.9172V11.9172Z" fill="#69944F"/>
<path fill-rule="evenodd" clip-rule="evenodd" d="M9.33325 18.4168C9.33325 17.9566 9.55711 17.5835 9.83325 17.5835H11.3333C11.6094 17.5835 11.8333 17.9566 11.8333 18.4168C11.8333 18.8771 11.6094 19.2502 11.3333 19.2502H9.83325C9.55711 19.2502 9.33325 18.8771 9.33325 18.4168Z" fill="white"/>
<path fill-rule="evenodd" clip-rule="evenodd" d="M13.5 18.4168C13.5 17.9566 13.7985 17.5835 14.1667 17.5835H16.1667C16.5349 17.5835 16.8333 17.9566 16.8333 18.4168C16.8333 18.8771 16.5349 19.2502 16.1667 19.2502H14.1667C13.7985 19.2502 13.5 18.8771 13.5 18.4168Z" fill="white"/>
<path fill-rule="evenodd" clip-rule="evenodd" d="M18.5 18.4168C18.5 17.9566 18.7985 17.5835 19.1667 17.5835H21.1667C21.5349 17.5835 21.8333 17.9566 21.8333 18.4168C21.8333 18.8771 21.5349 19.2502 21.1667 19.2502H19.1667C18.7985 19.2502 18.5 18.8771 18.5 18.4168Z" fill="white"/>
<path fill-rule="evenodd" clip-rule="evenodd" d="M9.33325 13.8335C9.33325 13.1431 9.86625 12.5835 10.5237 12.5835H12.3094C12.9669 12.5835 13.4999 13.1431 13.4999 13.8335C13.4999 14.5239 12.9669 15.0835 12.3094 15.0835H10.5237C9.86625 15.0835 9.33325 14.5239 9.33325 13.8335Z" fill="#FFDA24"/>
<path d="M18.5 10.0837C18.5 9.56595 18.5 9.30709 18.5951 9.1029C18.722 8.83065 18.9654 8.61434 19.2716 8.50157C19.5014 8.41699 19.7926 8.41699 20.375 8.41699H24.125C24.7074 8.41699 24.9986 8.41699 25.2284 8.50157C25.5346 8.61434 25.778 8.83065 25.9049 9.1029C26 9.30709 26 9.56595 26 10.0837H18.5Z" fill="white"/>
<path d="M26 10.0835H18.5V12.5835H26V10.0835Z" fill="#3355FF"/>
<path d="M18.5 12.5835H26C26 13.1012 26 13.3601 25.9049 13.5643C25.778 13.8365 25.5346 14.0528 25.2284 14.1656C24.9986 14.2502 24.7074 14.2502 24.125 14.2502H20.375C19.7926 14.2502 19.5014 14.2502 19.2716 14.1656C18.9654 14.0528 18.722 13.8365 18.5951 13.5643C18.5 13.3601 18.5 13.1012 18.5 12.5835Z" fill="#FF3333"/>
</svg>
