<svg width="31" height="31" viewBox="0 0 31 31" fill="none" xmlns="http://www.w3.org/2000/svg">
<path d="M15.6115 30.7423C24.0357 30.7423 30.8649 23.9181 30.8649 15.5001C30.8649 7.082 24.0357 0.257812 15.6115 0.257812C7.18733 0.257812 0.358154 7.082 0.358154 15.5001C0.358154 23.9181 7.18733 30.7423 15.6115 30.7423Z" fill="black"/>
<path d="M11.3103 9H20.926C22.6924 9 23.815 10.9087 22.9273 12.447L16.9906 22.7235C16.9022 22.8763 16.7751 23.0033 16.6215 23.0915C16.469 23.1797 16.2951 23.2261 16.1182 23.2261C15.9412 23.2261 15.7673 23.1797 15.6148 23.0915C15.4612 23.0033 15.3341 22.8763 15.2457 22.7235L9.3121 12.447C8.42232 10.9064 9.54293 9 11.3103 9ZM16.9937 10.754V19.6411L18.2862 17.1462L21.4029 11.57C21.4507 11.4867 21.4751 11.3923 21.4751 11.2963C21.4741 11.2004 21.4487 11.1063 21.3999 11.0234C21.3511 10.9406 21.2819 10.8721 21.1985 10.8248C21.1141 10.7775 21.0196 10.7531 20.924 10.754H16.9937ZM11.3072 10.7563C11.2116 10.7553 11.1171 10.7796 11.0337 10.8267C10.9503 10.8738 10.8812 10.942 10.8324 11.0246C10.7835 11.1072 10.7581 11.2011 10.7571 11.2968C10.7571 11.3926 10.7815 11.4868 10.8293 11.57L13.9471 17.1438L15.2406 19.6411V10.7563H11.3072Z" fill="#55B8FF"/>
</svg>
