<svg width="31" height="31" viewBox="0 0 31 31" fill="none" xmlns="http://www.w3.org/2000/svg">
<path d="M15.2534 30.7423C23.6776 30.7423 30.5068 23.9181 30.5068 15.5001C30.5068 7.082 23.6776 0.257812 15.2534 0.257812C6.82917 0.257812 0 7.082 0 15.5001C0 23.9181 6.82917 30.7423 15.2534 30.7423Z" fill="#3A3643"/>
<path d="M18.239 8.53467C14.5798 8.53467 11.6809 11.4135 11.6809 14.9423C11.6809 18.4711 14.6274 21.35 18.239 21.35C21.8507 21.35 24.7971 18.4711 24.7971 14.9423C24.8446 11.4135 21.8507 8.53467 18.239 8.53467ZM18.239 17.3104C16.9084 17.3104 15.7679 16.2424 15.7679 14.9423C15.7679 13.6422 16.8609 12.5743 18.239 12.5743C19.6171 12.5743 20.7102 13.6422 20.7102 14.9423C20.6627 16.2424 19.6171 17.3104 18.239 17.3104Z" fill="#8B3FFD"/>
<path d="M11.6807 10.4385V19.7713H9.35198L6.35815 10.4385H11.6807Z" fill="#8B3FFD"/>
</svg>
