<svg width="69" height="51" viewBox="0 0 69 51" fill="none" xmlns="http://www.w3.org/2000/svg">
<path d="M23.8167 42.5789C22.3333 44.7719 20.6593 46.9671 18.9667 49C6.66667 48.6476 2 40.6101 2 40.6101C2.17483 29.2219 4.91597 18.0223 10.0167 7.85612C14.5003 4.32473 19.9635 2.2841 25.65 2.01678L27.3167 5.8929C29.6971 5.56018 32.0968 5.38641 34.5 5.37272C36.9139 5.38072 39.3247 5.54889 41.7167 5.87612L43.3833 2C49.0754 2.2818 54.5392 4.34022 59.0167 7.88968C64.101 18.0485 66.8305 29.2359 67 40.6101C67 40.6101 62.3333 48.6476 50.0333 49C48.3391 46.9507 46.7482 44.817 45.2667 42.6069M56.0333 37.7408C49.6333 41.0051 43.4408 44.2681 34.5 44.2681C25.5592 44.2681 19.3667 41.0051 12.9667 37.7408" stroke="#3F8EFD" stroke-width="2.2" stroke-linecap="round" stroke-linejoin="round"/>
<path d="M24 34C27.3137 34 30 31.7614 30 29C30 26.2386 27.3137 24 24 24C20.6863 24 18 26.2386 18 29C18 31.7614 20.6863 34 24 34Z" stroke="#3F8EFD" stroke-width="2.2" stroke-linecap="round" stroke-linejoin="round"/>
<path d="M45 34C48.3137 34 51 31.7614 51 29C51 26.2386 48.3137 24 45 24C41.6863 24 39 26.2386 39 29C39 31.7614 41.6863 34 45 34Z" stroke="#3F8EFD" stroke-width="2.2" stroke-linecap="round" stroke-linejoin="round"/>
</svg>
