<svg width="47" height="47" viewBox="0 0 47 47" fill="none" xmlns="http://www.w3.org/2000/svg">
<path d="M47 11.1074C47 19.3405 47 27.5735 46.9971 35.8846C46.922 36.3192 46.8562 36.6771 46.7766 37.0319C46.1421 39.8614 44.7327 42.2164 42.5027 44.0851C41.0177 45.3294 39.3479 46.1886 37.4761 46.678C37.1001 46.7763 36.6894 46.7662 36.3516 47C27.8125 47 19.2735 47 10.6704 46.9756C10.4574 46.8083 10.2577 46.8629 10.0833 46.8229C7.23417 46.1685 4.82911 44.7875 2.93801 42.5306C1.75664 41.1207 0.917483 39.5418 0.407914 37.7771C0.270828 37.3023 0.246578 36.7946 0 36.3516C0 27.8125 0 19.2735 0.0259461 10.6714C0.0766831 10.5702 0.117813 10.5346 0.1239 10.4937C0.333105 9.08993 0.816626 7.77934 1.49809 6.54265C2.70606 4.35048 4.42233 2.6649 6.61391 1.45624C7.99204 0.69621 9.48004 0.278729 11.0156 0C19.4017 0 27.7877 -1.36788e-09 36.244 0.0186836C36.3678 0.0664449 36.4187 0.113258 36.4754 0.122025C38.2185 0.391556 39.8111 1.04209 41.286 2.00057C43.0574 3.15174 44.4503 4.6559 45.4806 6.49477C46.2859 7.93195 46.7504 9.48523 47 11.1074ZM38.4683 43.1875C38.6448 43.0964 38.8227 43.0078 38.9977 42.9138C40.4661 42.125 41.6425 41.0181 42.5533 39.6278C43.7924 37.7364 44.2236 35.6219 44.2091 33.4013C44.1625 26.2615 44.3284 19.1207 44.1175 11.9817C44.0949 11.2162 43.9396 10.4654 43.6908 9.74689C42.8798 7.40469 41.474 5.5244 39.3082 4.25861C37.9732 3.47837 36.548 2.90178 34.9939 2.89593C27.3459 2.86712 19.6978 2.88048 12.0497 2.88533C11.2352 2.88585 10.4438 3.07412 9.68196 3.34162C7.8945 3.9693 6.33757 4.94378 5.13585 6.44349C3.78083 8.13451 2.90176 10.0307 2.89231 12.2136C2.86026 19.6168 2.87958 27.0202 2.88154 34.4235C2.88165 34.8342 2.89212 35.2408 2.9568 35.6535C3.37321 38.3096 4.63989 40.4573 6.75461 42.1071C8.70139 43.6259 10.9587 44.2167 13.379 44.2039C20.4729 44.1667 27.5675 44.3238 34.661 44.1246C35.9804 44.0876 37.2189 43.7732 38.4683 43.1875Z" fill="#3F8EFD"/>
<path d="M35.9371 24.5137C35.5445 27.901 34.0276 30.6695 31.5171 32.8606C29.582 34.5494 27.314 35.5929 24.7278 35.8938C21.494 36.2701 18.4853 35.6601 15.77 33.8421C13.4869 32.3136 11.8628 30.2439 10.8415 27.6789C10.0708 25.7434 9.90113 23.735 10.048 21.7036C10.1928 19.7012 10.8581 17.8409 11.9238 16.1237C13.3461 13.832 15.3052 12.1602 17.745 11.0581C19.2105 10.3962 20.7607 10.0488 22.381 10.0081C23.9742 9.968 25.5505 10.064 27.0583 10.6021C31.7016 12.2595 34.6151 15.4966 35.7556 20.297C36.0815 21.6685 36.0127 23.0753 35.9371 24.5137ZM13.1301 21.0852C12.8647 22.0834 12.8663 23.1154 12.9938 24.1102C13.3365 26.7863 14.5214 29.0449 16.6447 30.7593C19.195 32.8183 22.0929 33.5306 25.2793 32.7857C28.1063 32.1249 30.2703 30.4898 31.7396 27.9691C32.8374 26.0857 33.2716 24.0296 33.0175 21.8898C32.6891 19.1239 31.4144 16.8182 29.2056 15.0814C27.6744 13.8775 25.925 13.1392 23.9856 12.9666C21.9543 12.7858 20.0071 13.1485 18.2059 14.1589C15.4899 15.6824 13.8168 17.9752 13.1301 21.0852Z" fill="#3F8EFD"/>
<path d="M34.0809 12.401C31.9976 11.247 31.441 8.78104 32.5814 6.95966C33.7356 5.11629 36.6902 4.44308 38.7516 5.50489C41.2253 6.77907 41.7802 9.80684 39.8016 11.743C38.8801 12.6448 37.6844 13.0643 36.2769 12.992C35.493 12.9518 34.7797 12.7776 34.0809 12.401ZM37.4923 9.32458C37.7285 8.87304 37.5198 8.53617 37.1379 8.24704C36.7884 7.98239 36.4069 7.94652 36.0106 8.15243C35.5957 8.36801 35.3452 8.67715 35.4377 9.12456C35.5208 9.52644 35.7935 9.82231 36.2362 9.92362C36.7896 10.0502 37.195 9.82849 37.4923 9.32458Z" fill="#3F8EFD"/>
</svg>
