<svg width="7" height="25" viewBox="0 0 7 25" fill="none" xmlns="http://www.w3.org/2000/svg">
<path d="M3.51444 24.692C2.68244 24.692 1.99444 24.42 1.45044 23.876C0.906438 23.332 0.634438 22.644 0.634438 21.812C0.634438 20.98 0.906438 20.308 1.45044 19.796C1.99444 19.284 2.68244 19.028 3.51444 19.028C4.41044 19.028 5.09844 19.284 5.57844 19.796C6.09044 20.308 6.34644 20.98 6.34644 21.812C6.34644 22.644 6.09044 23.332 5.57844 23.876C5.09844 24.42 4.41044 24.692 3.51444 24.692ZM3.51444 6.596C2.68244 6.596 1.99444 6.34 1.45044 5.828C0.906438 5.284 0.634438 4.596 0.634438 3.764C0.634438 2.932 0.906438 2.26 1.45044 1.748C1.99444 1.204 2.68244 0.931999 3.51444 0.931999C4.41044 0.931999 5.09844 1.204 5.57844 1.748C6.09044 2.26 6.34644 2.932 6.34644 3.764C6.34644 4.596 6.09044 5.284 5.57844 5.828C5.09844 6.34 4.41044 6.596 3.51444 6.596Z" fill="#3F8EFD"/>
</svg>
