<svg width="81" height="47" viewBox="0 0 81 47" fill="none" xmlns="http://www.w3.org/2000/svg">
<path d="M0 3.61508C0.0632196 3.49714 0.160872 3.46557 0.184696 3.40552C1.13982 0.998304 3.12401 0.129557 5.53758 0.0735124C8.59357 0.00255207 11.6578 -0.0540055 14.7088 0.0871749C17.7834 0.22945 19.1737 0.995151 20.6157 4.60168C22.303 8.82186 24.6927 12.6522 27.5713 16.1864C27.7475 16.4027 27.9471 16.6255 28.2703 16.674C28.5844 16.4381 28.5768 16.0956 28.5773 15.76C28.5796 14.0708 28.5695 12.3814 28.5851 10.6923C28.5892 10.2522 28.4567 10.0115 28.017 9.80664C25.9684 8.85256 24.8118 6.44571 25.2935 4.11901C25.7108 2.10401 27.7118 0.329691 29.7501 0.195428C34.3558 -0.107943 38.9656 0.0340481 43.5694 0.0995974C46.4276 0.140292 48.0485 1.29836 48.8128 3.741C49.0129 4.38064 49.1027 5.04845 49.1014 5.72716C49.0945 9.33954 49.0971 12.9519 49.099 16.5643C49.0995 17.549 49.5014 18.1772 50.3789 18.3571C51.1454 18.5142 51.654 18.0477 52.0335 17.4387C54.2888 13.82 56.5175 10.1848 58.8111 6.5898C59.7887 5.05744 60.6495 3.45179 61.7553 1.99771C62.524 0.986742 63.5627 0.371001 64.7925 0.238108C68.4397 -0.156025 72.1059 0.0622858 75.7622 0.0894478C77.7092 0.103911 79.3682 0.889367 80.4413 2.62735C80.6661 2.99137 80.727 3.40524 80.9713 3.80753C81 4.74115 81 5.62835 80.9729 6.63532C80.7853 7.10725 80.6747 7.49347 80.4556 7.80577C79.4262 9.27363 78.3716 10.7244 77.3176 12.1754C74.7825 15.6651 72.2466 19.1543 69.7014 22.6369C69.2398 23.2684 69.2214 23.8614 69.6921 24.4909C70.3452 25.3646 70.9763 26.2543 71.6212 27.134C73.8636 30.1927 76.1268 33.2368 78.3428 36.3139C79.3106 37.6576 80.484 38.8835 81 40.5085C81 41.3957 81 42.283 81 43.2431C80.2509 45.204 78.969 46.5001 76.8857 46.8899C76.5787 46.9474 76.259 46.9581 75.9451 46.9586C72.8619 46.9632 69.7742 46.8606 66.6968 46.9923C64.1643 47.1007 62.4042 46.0625 60.9387 44.1403C58.766 41.2905 56.4943 38.5141 54.2664 35.7051C53.5396 34.7887 52.8413 33.8491 52.087 32.9555C51.4318 32.1794 50.7471 31.7098 49.8752 32.2891C49.379 32.6188 49.09 33.0239 49.0951 33.6338C49.1071 35.0627 49.0378 36.4947 49.1095 37.9202C49.3411 42.5231 45.5734 45.8149 41.6582 46.6586C39.0121 47.2289 36.4314 47.0804 33.9619 45.9834C32.0153 45.1186 30.31 43.8425 28.5809 42.6232C24.5525 39.7824 20.8543 36.5672 17.4159 33.053C15.0061 30.5902 12.8304 27.9379 10.7716 25.1922C8.74337 22.4873 6.91372 19.645 5.20999 16.7351C3.39754 13.6395 1.75883 10.4472 0.236561 7.19991C0.205051 7.1327 0.142471 7.07964 0.0471926 6.99673C-4.71482e-09 5.87838 0 4.78327 0 3.61508ZM10.002 17.4892C10.7619 18.6359 11.5156 19.7867 12.2828 20.9287C15.1472 25.1925 18.4898 29.0501 22.2101 32.6194C25.9183 36.1771 30.0021 39.2372 34.3162 42.0186C36.8401 43.6457 39.533 43.8541 42.2484 42.5906C44.2285 41.6692 45.4985 40.229 45.3779 37.8383C45.2973 36.2409 45.3099 34.633 45.4778 33.0208C45.8971 28.9964 50.3268 27.2245 53.5159 29.2836C54.7808 30.1003 55.5395 31.3664 56.4449 32.4984C58.8948 35.5612 61.3701 38.6057 63.7436 41.7254C64.6834 42.9606 65.7155 43.5292 67.3224 43.4522C69.979 43.325 72.6465 43.4145 75.3094 43.4219C75.7096 43.423 76.1 43.3969 76.47 43.244C77.3754 42.8698 77.77 41.7999 77.2331 41.0512C75.9902 39.3182 74.711 37.6105 73.4536 35.8875C71.1546 32.7375 68.806 29.6208 66.586 26.4175C65.3094 24.5757 65.3091 22.5615 66.5577 20.6675C67.515 19.2153 68.5876 17.8368 69.6151 16.4298C72.0526 13.0918 74.4935 9.75612 76.9336 6.41981C77.3106 5.90426 77.6865 5.37998 77.3153 4.71326C76.9414 4.04158 76.3719 3.73843 75.5683 3.745C72.4574 3.77046 69.346 3.77273 66.2351 3.74907C65.3554 3.74238 64.7431 4.06153 64.2866 4.8003C61.909 8.64815 59.5375 12.5 57.1129 16.319C56.1832 17.7835 55.4677 19.3959 54.1886 20.6324C51.676 23.0614 47.2508 22.1833 45.8777 19.0012C45.4764 18.0712 45.3713 17.0968 45.3619 16.122C45.3287 12.6651 45.3491 9.20761 45.3485 5.75036C45.3482 4.26407 44.8343 3.75594 43.3128 3.75529C39.1734 3.75351 35.0341 3.75641 30.8947 3.75787C30.7102 3.75794 30.5245 3.75001 30.3413 3.76647C29.6106 3.83209 29.1198 4.21181 28.905 4.9022C28.705 5.54511 29.048 5.98625 29.5008 6.39589C29.9624 6.81342 30.5157 6.76356 31.0674 6.76431C32.1656 6.76582 32.1689 6.76669 32.1695 7.81203C32.1712 10.6714 32.1721 13.5308 32.1688 16.3902C32.1667 18.1222 31.3217 19.448 29.7538 20.042C28.4482 20.5367 26.4688 20.5038 25.3259 19.1516C24.453 18.1189 23.5883 17.0771 22.7719 16.0009C21.3856 14.1734 20.2098 12.2059 19.1448 10.1878C18.2007 8.39894 17.4162 6.52752 16.582 4.6834C16.3125 4.08772 15.835 3.77429 15.2317 3.77007C11.8308 3.74628 8.42929 3.73609 5.0287 3.77784C3.88082 3.79193 3.25974 4.83545 3.71188 5.87694C4.7792 8.33549 6.08005 10.6815 7.35813 13.0356C8.1626 14.5173 9.07448 15.9424 10.002 17.4892Z" fill="#3F8EFD"/>
</svg>
