<svg width="289" height="47" viewBox="0 0 289 47" fill="none" xmlns="http://www.w3.org/2000/svg">
<rect y="2" width="91" height="45" fill="white"/>
<rect x="88" y="2" width="201" height="45" fill="#02539A"/>
<path d="M4.81936 37V9.90312H14.9613C17.1291 9.90312 18.9226 10.2773 20.342 11.0257C21.7614 11.7741 22.8194 12.7805 23.5162 14.0451C24.213 15.2838 24.5614 16.6644 24.5614 18.187C24.5614 19.6322 24.2259 20.987 23.5549 22.2516C22.884 23.4903 21.8259 24.4967 20.3807 25.2709C18.9614 26.0193 17.1291 26.3935 14.8839 26.3935H10.0452V37H4.81936ZM18.871 37L13.2968 25.0774H18.9485L24.8323 37H18.871ZM10.0452 22.5999H14.6129C16.1872 22.5999 17.3484 22.2128 18.0968 21.4386C18.8452 20.6645 19.2194 19.6451 19.2194 18.3806C19.2194 17.116 18.8452 16.1225 18.0968 15.3999C17.3743 14.6515 16.213 14.2773 14.6129 14.2773H10.0452V22.5999ZM25.0574 37L33.7671 9.90312H42.1284L50.7607 37H45.2252L38.0252 13.1935H37.8703L30.5542 37H25.0574ZM29.4316 29.3742L30.8251 25.2709H44.6058L45.9607 29.3742H29.4316ZM51.834 37V9.90312H57.0599V37H51.834ZM60.0124 37V9.90312H66.3995L77.548 29.8774H77.7028V9.90312H82.9286V37H76.5415L65.3544 17.0644H65.2382V37H60.0124Z" fill="#02539A"/>
<path d="M102.562 37.4645C100.601 37.4645 98.8457 37.129 97.2973 36.4581C95.7747 35.7871 94.5618 34.8064 93.6586 33.5161C92.7812 32.2258 92.3166 30.6645 92.265 28.8322H97.8392C97.8651 29.6322 98.0586 30.3548 98.4199 31C98.807 31.6451 99.3489 32.1613 100.046 32.5484C100.742 32.9097 101.581 33.0903 102.562 33.0903C103.362 33.0903 104.059 32.9742 104.652 32.7419C105.272 32.4839 105.762 32.1226 106.123 31.658C106.484 31.1677 106.665 30.5613 106.665 29.8387C106.665 29.0645 106.472 28.4193 106.084 27.9032C105.697 27.3613 105.168 26.9096 104.497 26.5483C103.826 26.1871 103.065 25.8645 102.213 25.5806C101.388 25.2709 100.523 24.9612 99.6199 24.6516C97.4263 23.9032 95.7489 22.9354 94.5876 21.7483C93.4521 20.5612 92.8844 19.0128 92.8844 17.1031C92.8844 15.5031 93.2715 14.1354 94.0457 12.9999C94.8457 11.8644 95.9425 10.987 97.336 10.3676C98.7296 9.74828 100.317 9.4386 102.097 9.4386C103.93 9.4386 105.53 9.76118 106.897 10.4063C108.291 11.0257 109.388 11.9289 110.188 13.116C111.013 14.3031 111.439 15.6967 111.465 17.2967H105.852C105.852 16.6257 105.684 16.0322 105.349 15.516C105.013 14.9741 104.562 14.5483 103.994 14.2386C103.426 13.9289 102.742 13.7741 101.942 13.7741C101.297 13.7483 100.691 13.8515 100.123 14.0838C99.5812 14.2902 99.1425 14.6128 98.807 15.0515C98.4973 15.4902 98.3425 16.058 98.3425 16.7548C98.3425 17.3741 98.4844 17.9031 98.7683 18.3419C99.078 18.7806 99.5038 19.1677 100.046 19.5032C100.613 19.8128 101.284 20.1225 102.059 20.4322C102.833 20.7161 103.697 21.0257 104.652 21.3612C105.994 21.8257 107.233 22.3806 108.368 23.0257C109.504 23.6451 110.407 24.458 111.078 25.4645C111.775 26.4709 112.123 27.7871 112.123 29.4129C112.123 30.8322 111.749 32.1613 111.001 33.4C110.278 34.6129 109.207 35.5935 107.788 36.3419C106.394 37.0903 104.652 37.4645 102.562 37.4645ZM127.497 37.4645C124.813 37.4645 122.452 36.871 120.413 35.6839C118.375 34.4968 116.775 32.858 115.613 30.7677C114.478 28.6516 113.91 26.2129 113.91 23.4516C113.91 20.6903 114.478 18.2644 115.613 16.1741C116.775 14.058 118.375 12.4064 120.413 11.2193C122.452 10.0322 124.813 9.4386 127.497 9.4386C130.207 9.4386 132.581 10.0322 134.62 11.2193C136.659 12.4064 138.246 14.058 139.381 16.1741C140.543 18.2644 141.123 20.6903 141.123 23.4516C141.123 26.2129 140.543 28.6516 139.381 30.7677C138.246 32.858 136.659 34.4968 134.62 35.6839C132.581 36.871 130.207 37.4645 127.497 37.4645ZM127.497 32.7806C129.201 32.7806 130.672 32.4064 131.91 31.658C133.149 30.8838 134.104 29.8 134.775 28.4064C135.446 27.0129 135.781 25.3612 135.781 23.4516C135.781 21.5161 135.446 19.8644 134.775 18.4967C134.104 17.1031 133.149 16.0322 131.91 15.2838C130.672 14.5354 129.201 14.1612 127.497 14.1612C125.846 14.1612 124.388 14.5354 123.123 15.2838C121.884 16.0322 120.917 17.1031 120.22 18.4967C119.549 19.8644 119.213 21.5161 119.213 23.4516C119.213 25.3612 119.549 27.0129 120.22 28.4064C120.917 29.8 121.884 30.8838 123.123 31.658C124.388 32.4064 125.846 32.7806 127.497 32.7806ZM143.646 37V9.90312H161.298V14.1225H148.872V21.3612H158.82V25.4645H148.872V37H143.646ZM169.4 37V14.1225H161.503V9.90312H182.523V14.1225H174.626V37H169.4ZM188.693 37L182.383 9.90312H187.919L192.719 33.5161H192.874L198.293 9.90312H204.525L210.177 33.5161H210.332L214.861 9.90312H220.397L214.126 37H206.538L201.39 15.7096H201.274L196.28 37H188.693ZM217.514 37L226.224 9.90312H234.585L243.217 37H237.682L230.482 13.1935H230.327L223.011 37H217.514ZM221.888 29.3742L223.282 25.2709H237.063L238.417 29.3742H221.888ZM244.291 37V9.90312H254.433C256.601 9.90312 258.394 10.2773 259.813 11.0257C261.233 11.7741 262.291 12.7805 262.988 14.0451C263.684 15.2838 264.033 16.6644 264.033 18.187C264.033 19.6322 263.697 20.987 263.026 22.2516C262.355 23.4903 261.297 24.4967 259.852 25.2709C258.433 26.0193 256.601 26.3935 254.355 26.3935H249.517V37H244.291ZM258.342 37L252.768 25.0774H258.42L264.304 37H258.342ZM249.517 22.5999H254.084C255.659 22.5999 256.82 22.2128 257.568 21.4386C258.317 20.6645 258.691 19.6451 258.691 18.3806C258.691 17.116 258.317 16.1225 257.568 15.3999C256.846 14.6515 255.684 14.2773 254.084 14.2773H249.517V22.5999ZM266.116 37V9.90312H283.922V14.1225H271.342V21.2064H282.761V25.2709H271.342V32.7806H283.922V37H266.116Z" fill="white"/>
</svg>
